<svg xmlns="http://www.w3.org/2000/svg" viewBox="0 0 862.4 857.57"><defs><style>.cls-1{opacity:0.1;}.cls-2{fill:none;stroke:#000;stroke-miterlimit:10;}</style></defs><g id="圖層_2" data-name="圖層 2"><g id="圖層_1-2" data-name="圖層 1"><g class="cls-1"><path class="cls-2" d="M36.86,340.28l-.85,4.3-7.23,2.6a9.29,9.29,0,0,0-3,1.55,3.51,3.51,0,0,0-1.11,2l-.39,2L34,354.63l-.72,3.68L9.57,353.65l1.48-7.56a8.9,8.9,0,0,1,2.79-5.39,5.87,5.87,0,0,1,5.1-1.09,6.35,6.35,0,0,1,3.82,2.2,7.48,7.48,0,0,1,1.62,4.36h.06c.58-1,2.06-1.93,4.44-2.84ZM13.33,350.56l7.91,1.56.64-3.27a4.64,4.64,0,0,0-.54-3.49,4.08,4.08,0,0,0-2.77-1.81q-3.72-.74-4.59,3.69Z"/><path class="cls-2" d="M42.48,318l-1,4-6.66.65L32.42,332,38,335.68l-1,4L15.77,324.87l1-4ZM31.53,322.9l-10.08.92a11.68,11.68,0,0,1-1.86-.09l0,.11a9,9,0,0,1,1.65.82l8.45,5.61Z"/><path class="cls-2" d="M49.75,295.09l-1.28,4-20.53,5.57A10.23,10.23,0,0,1,26,305l0,.09a28.16,28.16,0,0,1,3.4.95l15.25,4.89-1.11,3.47-23-7.4,1.36-4.23L42,297.44c.95-.25,1.61-.41,2-.48l0-.08A26.27,26.27,0,0,1,40.6,296l-15-4.82,1.12-3.48Z"/><path class="cls-2" d="M51.93,289.07l-22.52-8.86,2.69-6.84q4.68-11.92,15.67-7.6a11.72,11.72,0,0,1,7.07,6.7,13.26,13.26,0,0,1-.29,9.94ZM33.77,277.89l16.54,6.51,1.2-3.07a9.18,9.18,0,0,0,.24-7.14,9,9,0,0,0-5.35-4.73c-2.63-1-4.91-1.1-6.85-.19S36.1,272,35,274.74Z"/><path class="cls-2" d="M49.92,262.25a13.31,13.31,0,0,1-7-6.85,11.17,11.17,0,0,1,.48-9.35,10.51,10.51,0,0,1,6.6-6,12.65,12.65,0,0,1,9.29.95,13.32,13.32,0,0,1,7,6.78,11.94,11.94,0,0,1-7.05,15.29A12.37,12.37,0,0,1,49.92,262.25Zm1.43-3.68a10.29,10.29,0,0,0,6.84.95,6.69,6.69,0,0,0,4.69-3.91,7,7,0,0,0,.19-6.19,10.17,10.17,0,0,0-5.16-4.67,10.75,10.75,0,0,0-7-1.11,6.72,6.72,0,0,0-4.64,4,6.93,6.93,0,0,0,0,6.21A10.2,10.2,0,0,0,51.35,258.57Z"/><path class="cls-2" d="M83.38,222.83l-13.62-7.66c-1.19-.67-2.56-1.52-4.13-2.57l0,.08a19.56,19.56,0,0,1,1.94,1.94l12,15.15-1.2,2.14-19.06-2.23a19.12,19.12,0,0,1-2.78-.72l0,.08q2,.93,4.68,2.45l13.26,7.45-1.71,3-21.1-11.86,2.56-4.56,17.15,2.12a17.88,17.88,0,0,1,3.2.64l.06-.1c-.48-.49-1.21-1.32-2.22-2.5L61.64,212.11l2.47-4.38L85.2,219.59Z"/><path class="cls-2" d="M82.9,193a13.75,13.75,0,0,1,6.91,2.19,6.3,6.3,0,0,1,2.35,2.67c.36.93,0,2.06-1,3.38l-2.81-1.08a4.78,4.78,0,0,0,.54-.65,1.33,1.33,0,0,0,.32-1.1,2.36,2.36,0,0,0-1-1.1,11,11,0,0,0-6.7-1.89,34.68,34.68,0,0,0-4.5-5.44l-1.26,1.79,20.11,14.16-1.53,2.17L72,192.28l4.33-6.16,2.22,1.57A35,35,0,0,1,82.9,193Zm0-9.55-.35,2.73a18.82,18.82,0,0,0-5.18-.13l.06-2.73A16.7,16.7,0,0,1,82.9,183.4Zm24.79.48,1.86,2.14-4.34,6.17q-3.4,4.83-7.15,5.26a27.9,27.9,0,0,1,1.5,4l-2.55.75a22.16,22.16,0,0,0-5.47-9.64l-1.33,1.89L88,192.86a29.68,29.68,0,0,0-3-4.44l-1.67,2.38L81,189.22l3.22-4.58,2.25,1.59a53.7,53.7,0,0,1,3.16,4.36l1.18-1.67L93,190.45A20,20,0,0,1,96.76,195a8,8,0,0,0,5.5-3.41ZM90.33,172l-4.15,5.89a8.41,8.41,0,0,1,.58,1.3l4-5.65,1.6,1.12-1.89,2.69,1,.74,2.43-3.45,1.67,1.17-6.3,9L88.16,184a12.45,12.45,0,0,1,.24,1.4l-2.78-.34a17.92,17.92,0,0,0-1.2-4.65l-1.29,1.84-1.93-1.36,2.07-2.94a6.63,6.63,0,0,0-1.07-1.49l1.9-1.92a12.65,12.65,0,0,1,.8,1.09l3.5-5Zm-.41,8.32-1-.74-1.31,1.86a14.77,14.77,0,0,1,.4,1.65Zm14.36,2.83a2,2,0,0,1,.86,1.23,2.07,2.07,0,0,1-.15,1.35,19.23,19.23,0,0,1-1.36,2.12l-2.47-.8c.19-.24.36-.47.52-.7a2.29,2.29,0,0,0,.54-1.11.77.77,0,0,0-.37-.59l-.38-.27a28.82,28.82,0,0,1-1.39,3.79L98.37,188a13.81,13.81,0,0,1,2.58,4.29l-2.53.79a11.16,11.16,0,0,0-4.28-5.4l-3.56-2.51,5.49-7.79ZM99.47,183l-3.09-2.18-2.48,3.53.74.52a23.4,23.4,0,0,1,2.72-2.54l1.34,1.6a20.26,20.26,0,0,0-2.33,2.2c.4.32.89.77,1.48,1.34A28.69,28.69,0,0,0,99.47,183Z"/><path class="cls-2" d="M107,166.42l.14,2.27a20.55,20.55,0,0,0-2.65-.62L116.47,178l-1.72,2.06-10.86-9a25.6,25.6,0,0,1,3.24,5.68l-3.38-1.18a35.32,35.32,0,0,0-4.68-7.84l-1.74,2.1-2.07-1.72,2.07-2.49-4.19-3.49L94.85,160l4.2,3.48,1.35-1.62,2.06,1.72-1.35,1.62.39.32A26.72,26.72,0,0,1,107,166.42Zm5.22-5.7-.89,1.88a9.2,9.2,0,0,0-1.5-.86c-.89,1.55-1.76,2.93-2.59,4.17l-2.17-.94a29.4,29.4,0,0,0-1-4.2c-.55.8-1,1.42-1.39,1.87l-1.9-.91a17.09,17.09,0,0,0-2.71-5.67l2.17-1.39a25.84,25.84,0,0,1,2,4.63,6.17,6.17,0,0,0,.88-1.26c-.13-.38-.44-1.1-.94-2.17l2.28-.93a32.55,32.55,0,0,1,2.21,7.8,16.93,16.93,0,0,0,1.24-1.9,4.72,4.72,0,0,0-1.31-.53l.71-1.91A28.61,28.61,0,0,1,112.26,160.72Zm14.34-3.32c2.49,2.82,3.18,4.91,2.05,6.26q-1.17,1.41-5.27,1.11a34,34,0,0,1-1.49,7l-2.85-.34a26.79,26.79,0,0,0,1.64-7.13,22.49,22.49,0,0,1-4.68-1.93l-2.92,3.52.57.51a33.42,33.42,0,0,1,4.94-1.13l.61,2.76a18.71,18.71,0,0,0-3.47.53,14.75,14.75,0,0,1,3,7.19l-2.69.78q-.31-4.69-4.73-8.53l-1.74,2.09-2-1.67,6.12-7.36q-4.68-3-12.19-9l1.7-2a137.32,137.32,0,0,0,12.18,9l1.21-1.45a2.33,2.33,0,0,0-1.08-.24l1.42-2.67c.43.06,1,.17,1.79.35l1.78-2.14,2,1.68-4.77,5.73a13,13,0,0,0,2.91,1.26,14.48,14.48,0,0,0-.63-3.44l2.5-1.08a19.25,19.25,0,0,1,.86,5.12c1.63.11,2.55.05,2.75-.19q.56-.67-2.31-3.49Zm-7.18-5.54-.75,1.91-1.58-.91q-1.5,2.4-2.71,4.26l-2.19-.87a20,20,0,0,0-.81-4.08c-.42.7-.85,1.39-1.29,2.05l-2-1.16a23.56,23.56,0,0,0-2.48-5.88l2.19-1.27a25.82,25.82,0,0,1,1.92,5.05,13.74,13.74,0,0,0,.89-1.41c-.34-1-.64-1.74-.91-2.34l2.12-1.18a35,35,0,0,1,2.21,7.76c.27-.36.65-.94,1.15-1.75a5.51,5.51,0,0,0-1.14-.43l.76-1.91A23,23,0,0,1,119.42,151.86Z"/><path class="cls-2" d="M164.38,125.21l-3.22,3L153.79,126a9,9,0,0,0-3.34-.51,3.48,3.48,0,0,0-2.06,1l-1.49,1.38,6.75,7.29-2.75,2.55-16.44-17.76,5.65-5.23a8.88,8.88,0,0,1,5.42-2.71,5.89,5.89,0,0,1,4.77,2.13,6.32,6.32,0,0,1,1.79,4,7.5,7.5,0,0,1-1.26,4.48l0,0q1.57-.69,5.26.33Zm-25.07-5.56,5.48,5.92,2.44-2.26a4.63,4.63,0,0,0,1.62-3.14,4.1,4.1,0,0,0-1.17-3.09q-2.58-2.79-5.88.27Z"/><path class="cls-2" d="M182.06,110.54l-3.18,2.63-5.76-3.41-7.46,6.18,2.35,6.23-3.18,2.63-8.4-24.47,3.22-2.66ZM170.33,108l-8.69-5.2a9.77,9.77,0,0,1-1.45-1.17l-.09.07a9.27,9.27,0,0,1,.85,1.64l3.52,9.52Z"/><path class="cls-2" d="M201.43,96.32l-3.38,2.46-19.87-7.6a11,11,0,0,1-1.76-.82l-.08,0a28.58,28.58,0,0,1,2.2,2.77L188,106.13,185,108.27,170.77,88.71l3.59-2.61,19.38,7.53c.93.36,1.55.61,1.88.77l.07-.05a23,23,0,0,1-2.18-2.7l-9.29-12.74,2.95-2.15Z"/><path class="cls-2" d="M206.75,92.73l-13-20.43,6.2-3.94q10.81-6.87,17.14,3.09A11.68,11.68,0,0,1,218.87,81a13.28,13.28,0,0,1-6.08,7.86ZM198.65,73l9.53,15L211,86.23a9.2,9.2,0,0,0,4.39-5.63,9,9,0,0,0-1.54-7q-2.26-3.57-5.42-4.19c-2.1-.41-4.4.18-6.88,1.76Z"/><path class="cls-2" d="M220.9,69.88a13.22,13.22,0,0,1-1.66-9.67,11.12,11.12,0,0,1,5.89-7.28A10.51,10.51,0,0,1,234,52a12.67,12.67,0,0,1,7,6.23,13.34,13.34,0,0,1,1.68,9.61,11.95,11.95,0,0,1-14.69,8.23A12.38,12.38,0,0,1,220.9,69.88Zm3.32-2.13a10.22,10.22,0,0,0,5,4.78,6.68,6.68,0,0,0,6.09-.39,7,7,0,0,0,3.8-4.9,10.16,10.16,0,0,0-1.43-6.81,10.69,10.69,0,0,0-5-5,6.67,6.67,0,0,0-6.1.5,6.85,6.85,0,0,0-3.69,5A10.12,10.12,0,0,0,224.22,67.75Z"/><path class="cls-2" d="M271.13,57.67l-6.52-14.2c-.58-1.24-1.18-2.74-1.83-4.51l-.09,0a21.21,21.21,0,0,1,.44,2.71L263.89,61l-2.23,1L247.55,49a19.1,19.1,0,0,1-1.83-2.22l-.08,0q1.05,1.92,2.34,4.73l6.35,13.82-3.16,1.45-10.11-22,4.76-2.19,12.62,11.8a17.25,17.25,0,0,1,2.22,2.4l.1,0c-.09-.68-.2-1.79-.32-3.32l-.61-17.26,4.57-2.11,10.11,22Z"/><path class="cls-2" d="M288.31,33.2a13.66,13.66,0,0,1,4.3,5.82,6.21,6.21,0,0,1,.34,3.54c-.25,1-1.17,1.69-2.75,2.18l-1.65-2.53a3.87,3.87,0,0,0,.83-.2,1.33,1.33,0,0,0,.9-.71,2.33,2.33,0,0,0-.16-1.47,11,11,0,0,0-4.32-5.46,34.78,34.78,0,0,0-.44-7l-2.08.71,8,23.27-2.51.86-8.87-25.91L287,23.81l.88,2.57A36,36,0,0,1,288.31,33.2Zm5.61-7.74-1.89,2a19.07,19.07,0,0,0-4.12-3.15l1.65-2.17A16.94,16.94,0,0,1,293.92,25.46ZM313.7,40.41l.26,2.82-7.14,2.44q-5.61,1.92-8.88.07a29.13,29.13,0,0,1-1.12,4.1L294.31,49a22.21,22.21,0,0,0,1.24-11l-2.19.75-.89-2.59a30,30,0,0,0,.17-5.36l-2.75.94-.89-2.6,5.29-1.81.89,2.6c.08,2,.08,3.82,0,5.39l1.94-.67.86,2.52a20.45,20.45,0,0,1,.35,5.89,7.93,7.93,0,0,0,6.45.47ZM306.62,20.6l-6.81,2.34a9.31,9.31,0,0,1-.3,1.39L306,22.09l.63,1.85L303.57,25l.41,1.21,4-1.37.67,1.94-10.36,3.55-.45-1.3a11.61,11.61,0,0,1-.64,1.27l-2-1.91a18,18,0,0,0,1.76-4.46l-2.13.73L294,22.42l3.4-1.16a6.52,6.52,0,0,0,0-1.84l2.66-.43a13,13,0,0,1,0,1.35l5.75-2Zm-5.22,6.5L301,25.89l-2.14.73c-.27.71-.48,1.23-.65,1.58Zm10,10.72a2,2,0,0,1,0,1.5,2.06,2.06,0,0,1-.92,1,19.88,19.88,0,0,1-2.34.91l-1.54-2.1c.3-.08.58-.16.84-.25a2.31,2.31,0,0,0,1.09-.59.75.75,0,0,0,0-.69l-.15-.44A29.52,29.52,0,0,1,305,39.42l-1.28-1.15a14,14,0,0,1-.43,5l-2.51-.83a11.21,11.21,0,0,0-.3-6.89l-1.41-4.12,9-3.09Zm-3.79-3-1.22-3.58-4.08,1.4.29.86a23.22,23.22,0,0,1,3.69-.46l.15,2.08a20.35,20.35,0,0,0-3.18.41,18,18,0,0,1,.41,2A27.92,27.92,0,0,0,307.57,34.86Z"/><path class="cls-2" d="M323.41,25.89l-1.22,1.92a23.42,23.42,0,0,0-1.78-2.06l3.83,15-2.6.67-3.49-13.69a25.33,25.33,0,0,1-.71,6.5l-2-2.94a36.15,36.15,0,0,0,.81-9.1l-2.64.68-.66-2.61,3.13-.8-1.35-5.28,2.61-.67,1.34,5.29,2.05-.52.66,2.6-2,.52.12.49A26.89,26.89,0,0,1,323.41,25.89ZM331,24.34l-1.82,1a9.83,9.83,0,0,0-.71-1.57c-1.64.72-3.15,1.34-4.55,1.85l-1.21-2a29.35,29.35,0,0,0,1.7-4c-.92.32-1.66.56-2.22.7l-1-1.86a16.83,16.83,0,0,0,1.13-6.17l2.57.15a25,25,0,0,1-1.12,4.9,6,6,0,0,0,1.46-.5c.11-.39.28-1.16.5-2.31l2.39.59a32.62,32.62,0,0,1-2.78,7.61,15.92,15.92,0,0,0,2.11-.82,4.55,4.55,0,0,0-.74-1.19l1.7-1.13A28.68,28.68,0,0,1,331,24.34Zm13.56,5.74q.54,5.61-2,6.27-1.78.45-4.91-2.2a34.74,34.74,0,0,1-5.3,4.76L330.2,37a26.27,26.27,0,0,0,5.51-4.81,22.22,22.22,0,0,1-2.64-4.31L328.63,29l.16.75a34.56,34.56,0,0,1,4.67,2l-1.13,2.6a18.16,18.16,0,0,0-3.12-1.61,14.64,14.64,0,0,1-1.79,7.58l-2.63-.94q2.5-4,1.17-9.69l-2.63.68-.65-2.55L332,25.42q-2-5.18-4.6-14.42l2.57-.66a138.21,138.21,0,0,0,4.6,14.42l1.83-.46a2.32,2.32,0,0,0-.74-.83l2.73-1.32c.31.29.72.74,1.24,1.32l2.69-.68.65,2.54-7.22,1.84a12.7,12.7,0,0,0,1.62,2.73,14.56,14.56,0,0,0,1.5-3.15l2.66.59A19.67,19.67,0,0,1,339.17,32c1.26,1,2,1.52,2.34,1.45.56-.15.62-1.54.18-4.18ZM342,21.38l-1.74,1.1-.74-1.66c-1.74.71-3.31,1.33-4.69,1.85l-1.26-2a20.65,20.65,0,0,0,1.74-3.78c-.75.32-1.51.62-2.25.9l-1-2.13a23.2,23.2,0,0,0,1.44-6.22l2.52.26a25.91,25.91,0,0,1-1.41,5.21,11.1,11.1,0,0,0,1.55-.62c.29-1,.5-1.78.64-2.42l2.41.29a35.61,35.61,0,0,1-2.78,7.58c.43-.14,1.08-.38,2-.74a5.51,5.51,0,0,0-.66-1l1.73-1.09A22.89,22.89,0,0,1,342,21.38Z"/><path class="cls-2" d="M394,26.24l-4.36.52L385,20.67a9.29,9.29,0,0,0-2.4-2.37,3.51,3.51,0,0,0-2.23-.44l-2,.24L379.5,28l-3.72.44-2.86-24,7.65-.91a8.94,8.94,0,0,1,6,1A5.85,5.85,0,0,1,389.16,9a6.41,6.41,0,0,1-.92,4.31,7.41,7.41,0,0,1-3.65,2.87v.07q1.68.36,4.07,3.35ZM377,7l.95,8,3.31-.39A4.6,4.6,0,0,0,384.42,13a4.1,4.1,0,0,0,.88-3.19q-.45-3.76-4.92-3.24Z"/><path class="cls-2" d="M417,24.79l-4.12.25-2.65-6.14-9.67.6-1.76,6.42-4.11.25,7.6-24.72,4.17-.26Zm-8-8.93-4-9.32a10.35,10.35,0,0,1-.49-1.8h-.11a9,9,0,0,1-.28,1.81l-2.76,9.77Z"/><path class="cls-2" d="M441,24.71h-4.19L425.21,6.86a10.92,10.92,0,0,1-.94-1.7h-.09a29.38,29.38,0,0,1,.14,3.53v16h-3.64V.5h4.44L436.35,18c.53.84.88,1.42,1.06,1.74h.08a24.5,24.5,0,0,1-.17-3.47V.5H441Z"/><path class="cls-2" d="M447.39,24.94,449,.79l7.33.47q12.78.83,12,12.6a11.76,11.76,0,0,1-4.22,8.79,13.26,13.26,0,0,1-9.55,2.75Zm5.1-20.7L451.34,22l3.29.22a9.18,9.18,0,0,0,6.87-2,9,9,0,0,0,2.87-6.54c.18-2.81-.45-5-1.91-6.58s-3.65-2.45-6.59-2.64Z"/><path class="cls-2" d="M472.31,14.84a13.26,13.26,0,0,1,4.36-8.79,11.1,11.1,0,0,1,9.05-2.41,10.51,10.51,0,0,1,7.7,4.45,12.72,12.72,0,0,1,1.95,9.13A13.32,13.32,0,0,1,491.06,26a12,12,0,0,1-16.72-2A12.39,12.39,0,0,1,472.31,14.84Zm3.94.23a10.33,10.33,0,0,0,1.19,6.8,6.67,6.67,0,0,0,5.16,3.26,7,7,0,0,0,5.95-1.71,10.08,10.08,0,0,0,2.86-6.34,10.64,10.64,0,0,0-1.08-7,6.7,6.7,0,0,0-5.22-3.19,6.9,6.9,0,0,0-5.92,1.86A10.14,10.14,0,0,0,476.25,15.07Z"/><path class="cls-2" d="M520.07,34.55l3.08-15.32c.27-1.33.66-2.91,1.17-4.72h-.09A19.13,19.13,0,0,1,523,16.94L512.25,33l-2.4-.48L506.1,13.68a18.4,18.4,0,0,1-.18-2.87l-.09,0q-.27,2.18-.89,5.21l-3,14.91-3.42-.69L503.3,6.49l5.14,1,3.26,17a17.33,17.33,0,0,1,.38,3.24l.11,0c.32-.61.89-1.57,1.69-2.88l9.68-14.31,4.93,1-4.78,23.73Z"/><path class="cls-2" d="M548.35,24.86a13.71,13.71,0,0,1,.06,7.25,6.11,6.11,0,0,1-1.81,3q-1.15,1-3.51.15l.16-3a4.51,4.51,0,0,0,.79.32,1.36,1.36,0,0,0,1.15,0,2.41,2.41,0,0,0,.73-1.29,11,11,0,0,0-.28-6.95,34.32,34.32,0,0,0,3.78-6l-2.09-.64-7.24,23.51-2.54-.79,8.06-26.17,7.2,2.21-.8,2.6A36,36,0,0,1,548.35,24.86Zm16.3,20.77-1.45,2.43L556,45.84q-5.65-1.76-7.22-5.17a28.66,28.66,0,0,1-3.32,2.66l-1.5-2.2A22.05,22.05,0,0,0,551.42,33l-2.21-.68.81-2.61a30,30,0,0,0,3.28-4.24l-2.78-.85.81-2.63,5.35,1.64-.81,2.63q-1.68,2.53-3.17,4.36l1.95.6-.78,2.54a20.7,20.7,0,0,1-3.18,5,7.9,7.9,0,0,0,4.94,4.17Zm-.37-3.47a2,2,0,0,1-.9,1.2,2,2,0,0,1-1.33.27,18.31,18.31,0,0,1-2.44-.64v-2.6c.28.11.56.21.83.29a2.36,2.36,0,0,0,1.22.17.75.75,0,0,0,.44-.54l.14-.45a25.91,25.91,0,0,1-4-.14L557.85,38a14.2,14.2,0,0,1-3.27,3.78L553,39.66a11.21,11.21,0,0,0,3.82-5.74l1.28-4.17,9.11,2.81Zm-6.84-20.25-2.71.5a18.57,18.57,0,0,0-1.48-5l2.62-.79A17,17,0,0,1,557.44,21.91Zm13.13,3.53-6.88-2.12a8.8,8.8,0,0,1-1.06.95l6.6,2-.58,1.87-3.13-1-.38,1.22,4,1.24-.6,2L558.1,28.4l.41-1.31a14.12,14.12,0,0,1-1.27.66L556.71,25a18,18,0,0,0,4-2.58l-2.15-.66.7-2.25,3.43,1a6.14,6.14,0,0,0,1.09-1.47l2.41,1.21a11.43,11.43,0,0,1-.78,1.1l5.81,1.79ZM563,37.54l1.11-3.62L560,32.65l-.27.87a23.62,23.62,0,0,1,3.26,1.8l-1.1,1.77A20.25,20.25,0,0,0,559,35.56c-.18.47-.45,1.08-.82,1.82A29.7,29.7,0,0,0,563,37.54Zm-.43-9.91.38-1.23-2.17-.67c-.63.42-1.11.72-1.45.9Z"/><path class="cls-2" d="M581.05,39.59l-2.12.84a23.24,23.24,0,0,0-.23-2.72L573,52.15l-2.49-1L575.68,38a25.24,25.24,0,0,1-4.4,4.84l.08-3.58a35.15,35.15,0,0,0,6-6.88l-2.52-1,1-2.49,3,1.19,2-5.06,2.5,1-2,5.07,2,.78-1,2.49-2-.78-.19.47A26.8,26.8,0,0,1,581.05,39.59ZM595.67,55.4c-1.91,3.25-3.68,4.54-5.31,3.89q-1.71-.67-2.69-4.67a33.74,33.74,0,0,1-7.08.73L580,52.54a26.44,26.44,0,0,0,7.29-.65,22.34,22.34,0,0,1,.39-5l-4.26-1.69-.31.7a31.89,31.89,0,0,1,2.61,4.35l-2.44,1.43a18.22,18.22,0,0,0-1.58-3.13,14.67,14.67,0,0,1-5.9,5.08l-1.58-2.31q4.38-1.76,6.65-7.14l-2.53-1,1-2.44,8.89,3.53q1.41-5.37,4.76-14.36l2.47,1a134.43,134.43,0,0,0-4.76,14.37l1.75.69a2.32,2.32,0,0,0-.11-1.1l3,.53c.08.42.15,1,.23,1.81l2.58,1-1,2.44-6.93-2.75a13.41,13.41,0,0,0-.3,3.16A15.17,15.17,0,0,0,593,49.35l1.81,2a19.43,19.43,0,0,1-4.6,2.41c.4,1.58.74,2.43,1,2.55.55.21,1.41-.88,2.6-3.27Zm-7.59-12.61L586,42.53a8.76,8.76,0,0,0,.36-1.69c-1.75-.37-3.34-.77-4.76-1.18l.21-2.35a29.45,29.45,0,0,0,3.7-2.21c-.93-.28-1.66-.53-2.21-.74l.28-2.1a16.94,16.94,0,0,0,4.55-4.32l2,1.63a24,24,0,0,1-3.79,3.3,5.54,5.54,0,0,0,1.47.45c.32-.24.91-.76,1.77-1.57l1.59,1.88a32.39,32.39,0,0,1-6.73,4.52,17.21,17.21,0,0,0,2.19.59,4.87,4.87,0,0,0,.11-1.41l2,.09A29.52,29.52,0,0,1,588.08,42.79Zm10.64,4.07-2.05-.13L597,45c-1.83-.45-3.45-.87-4.88-1.25l.14-2.35a20.93,20.93,0,0,0,3.64-2c-.8-.18-1.59-.38-2.35-.6l.47-2.28a23.4,23.4,0,0,0,4.83-4.18l1.88,1.69a26.44,26.44,0,0,1-4.21,3.38,10.68,10.68,0,0,0,1.62.41c.81-.62,1.46-1.14,1.94-1.58l1.78,1.65a34.51,34.51,0,0,1-6.7,4.5c.43.15,1.1.33,2,.55a5.66,5.66,0,0,0,.07-1.22l2,.14A22.74,22.74,0,0,1,598.72,46.86Z"/><path class="cls-2" d="M638,81.39l-3.83-2.14-.21-7.68a9.48,9.48,0,0,0-.55-3.33,3.51,3.51,0,0,0-1.54-1.67l-1.77-1-4.86,8.67-3.27-1.83L633.74,51.3l6.72,3.76a8.93,8.93,0,0,1,4.25,4.32,5.87,5.87,0,0,1-.55,5.2,6.32,6.32,0,0,1-3.28,2.94,7.42,7.42,0,0,1-4.64.18l0,0c.77.86,1.2,2.56,1.32,5.11ZM635.5,55.83l-3.94,7,2.91,1.63a4.53,4.53,0,0,0,3.48.57A4,4,0,0,0,640.53,63q1.86-3.31-2.07-5.52Z"/><path class="cls-2" d="M657.34,93.69l-3.48-2.21L655.33,85l-8.17-5.2L642,83.91l-3.48-2.22,20.69-15.52,3.52,2.24Zm-1.22-11.93,2.27-9.86a10.2,10.2,0,0,1,.67-1.75l-.09-.06a8.93,8.93,0,0,1-1.3,1.31l-8,6.28Z"/><path class="cls-2" d="M676.84,107.76l-3.39-2.46,1.13-21.24a10,10,0,0,1,.25-1.93l-.08-.06a27.37,27.37,0,0,1-2,2.94L663.37,98l-3-2.14,14.24-19.57,3.59,2.61L677,99.62c-.06,1-.12,1.66-.16,2l.06,0a25.35,25.35,0,0,1,1.9-2.9L688.12,86l3,2.15Z"/><path class="cls-2" d="M681.89,111.73l15.46-18.62L703,97.8q9.86,8.17,2.32,17.26a11.68,11.68,0,0,1-8.58,4.62,13.26,13.26,0,0,1-9.35-3.38ZM698.18,98l-11.35,13.67,2.54,2.1a9.18,9.18,0,0,0,6.7,2.45,9,9,0,0,0,6.17-3.6q2.7-3.25,2.33-6.44c-.25-2.13-1.51-4.13-3.78-6Z"/><path class="cls-2" d="M708,118.2a13.25,13.25,0,0,1,8.7-4.53,11.11,11.11,0,0,1,8.73,3.37,10.47,10.47,0,0,1,3.6,8.13,12.65,12.65,0,0,1-3.8,8.53,13.31,13.31,0,0,1-8.63,4.55,12,12,0,0,1-12.33-11.47A12.4,12.4,0,0,1,708,118.2Zm3,2.51a10.26,10.26,0,0,0-3,6.2,6.7,6.7,0,0,0,2.25,5.68,7,7,0,0,0,5.82,2.11,10.09,10.09,0,0,0,6-3.44,10.68,10.68,0,0,0,3.23-6.27,6.67,6.67,0,0,0-2.34-5.66,6.88,6.88,0,0,0-5.88-2A10.14,10.14,0,0,0,711,120.71Z"/><path class="cls-2" d="M735,162.28l11.52-10.56c1-.92,2.25-2,3.73-3.12l-.07-.07a18.92,18.92,0,0,1-2.44,1.24l-18.12,6.63L728,154.59l8-17.41a20.17,20.17,0,0,1,1.56-2.42l-.07-.07c-1,1.07-2.26,2.29-3.78,3.69L722.5,148.65l-2.36-2.57L738,129.73l3.53,3.86-7.36,15.62a18.09,18.09,0,0,1-1.6,2.85l.07.08c.62-.29,1.64-.74,3.07-1.32L751.94,145l3.4,3.71L737.5,165Z"/><path class="cls-2" d="M763.55,171.13a13.69,13.69,0,0,1-4.22,5.89,6.16,6.16,0,0,1-3.26,1.4c-1,.06-2-.59-2.93-1.95l1.91-2.34a4.16,4.16,0,0,0,.44.73,1.36,1.36,0,0,0,1,.64,2.41,2.41,0,0,0,1.34-.61,11,11,0,0,0,3.88-5.78,35,35,0,0,0,6.57-2.59l-1.31-1.75-19.7,14.72-1.59-2.13L767.58,161l4.51,6-2.18,1.63A36.07,36.07,0,0,1,763.55,171.13Zm.93,26.38-2.61,1.11-4.51-6q-3.55-4.76-2.79-8.43a29,29,0,0,1-4.25.19l.09-2.66a22.18,22.18,0,0,0,10.85-2.2l-1.38-1.86,2.19-1.63a29.74,29.74,0,0,0,5.15-1.49l-1.74-2.33,2.2-1.65L771,175l-2.2,1.64q-2.85,1-5.13,1.65l1.22,1.64-2.13,1.59a20.39,20.39,0,0,1-5.5,2.14,7.93,7.93,0,0,0,1.54,6.28Zm1.74-3a2,2,0,0,1-1.43.44,2,2,0,0,1-1.24-.57,18.71,18.71,0,0,1-1.59-2l1.53-2.1a8.26,8.26,0,0,0,.5.72c.38.51.68.8.89.86a.77.77,0,0,0,.67-.17l.38-.28a27.51,27.51,0,0,1-3.17-2.49l.7-1.58a13.91,13.91,0,0,1-4.88,1.13l0-2.65a11.21,11.21,0,0,0,6.46-2.4l3.5-2.6,5.7,7.63Zm1.66-4.51,3-2.27-2.58-3.45-.73.54a24,24,0,0,1,1.57,3.38l-1.93.78a20.77,20.77,0,0,0-1.37-2.9q-.64.42-1.74,1A29,29,0,0,0,767.88,190Zm13.28-5.28-4.31-5.77a9.34,9.34,0,0,1-1.42.14l4.13,5.53L778,185.77l-2-2.63-1,.77,2.53,3.38-1.65,1.22-6.55-8.77,1.1-.82c-.37,0-.84-.11-1.41-.22l1.19-2.53a18.24,18.24,0,0,0,4.79.31l-1.34-1.81,1.89-1.41,2.15,2.88a6.45,6.45,0,0,0,1.75-.55l1.23,2.4c-.26.11-.68.25-1.28.43l3.64,4.87Zm-8.53-10.6-2.48-1.19a18.75,18.75,0,0,0,1.73-4.88l2.57.91A16.44,16.44,0,0,1,772.63,174.1Zm.74,7.62,1-.77L773,179.14c-.75,0-1.32-.08-1.7-.14Z"/><path class="cls-2" d="M781.28,202.29l-2.21-.57a20.37,20.37,0,0,0,1.41-2.33l-13.14,8.28-1.43-2.28,12-7.53a25.76,25.76,0,0,1-6.4,1.33l2.17-2.85a35.34,35.34,0,0,0,8.9-2l-1.45-2.3,2.27-1.43,1.73,2.73,4.61-2.9,1.44,2.27-4.62,2.91,1.13,1.78-2.28,1.44L784.24,197l-.42.27A27.55,27.55,0,0,1,781.28,202.29Zm2.51,21.39q-5.17,2.25-6.59,0-1-1.56.58-5.35a34.34,34.34,0,0,1-6.15-3.58l1.2-2.61a26.45,26.45,0,0,0,6.27,3.77,22,22,0,0,1,3.29-3.84L780,208.2l-.67.39a33,33,0,0,1-.45,5l-2.82-.28a17.74,17.74,0,0,0,.57-3.46,14.7,14.7,0,0,1-7.77.63l.09-2.79q4.58,1.14,9.58-1.86l-1.45-2.3,2.22-1.4,5.1,8.09q4.3-3.51,12.31-8.81l1.41,2.25a136.3,136.3,0,0,0-12.3,8.8l1,1.6a2.3,2.3,0,0,0,.56-1l2.1,2.19c-.19.39-.48.92-.88,1.59l1.48,2.35-2.22,1.4-4-6.3a12.69,12.69,0,0,0-2.11,2.37,14.19,14.19,0,0,0,3.47.46l.25,2.72a19.74,19.74,0,0,1-5.14-.77q-.9,2.28-.66,2.67.47.75,4-1.11ZM785.08,209l-1.52-1.43a9.6,9.6,0,0,0,1.29-1.16q-1.8-2-3.16-3.76l1.56-1.77a28.62,28.62,0,0,0,4.29.39c-.59-.77-1-1.41-1.35-1.9l1.46-1.53a16.88,16.88,0,0,0,6.22-.82l.65,2.49a24.43,24.43,0,0,1-5,.44,5.61,5.61,0,0,0,.92,1.23c.4,0,1.18-.08,2.35-.22l.18,2.45a32.23,32.23,0,0,1-8.1-.31,16.12,16.12,0,0,0,1.42,1.76,4.48,4.48,0,0,0,.92-1.07l1.59,1.27A29.56,29.56,0,0,1,785.08,209Zm6.2,9.55-1.58-1.31,1.35-1.22q-1.81-2.16-3.21-3.89l1.5-1.82a20.13,20.13,0,0,0,4.14.5c-.54-.62-1.06-1.24-1.55-1.87l1.73-1.57a23.54,23.54,0,0,0,6.36-.53l.53,2.47a25.86,25.86,0,0,1-5.4.26,11.81,11.81,0,0,0,1.07,1.29c1,0,1.85-.08,2.5-.14l.47,2.38a34.74,34.74,0,0,1-8.07-.31c.26.37.7.91,1.31,1.64a6.05,6.05,0,0,0,.77-.95l1.57,1.32A23.2,23.2,0,0,1,791.28,218.57Z"/><path class="cls-2" d="M802.71,269.56l-1.84-4,4.34-6.33a9.45,9.45,0,0,0,1.52-3,3.55,3.55,0,0,0-.27-2.26l-.85-1.84-9,4.16-1.57-3.4,22-10.14,3.22,7a8.83,8.83,0,0,1,.9,6,5.84,5.84,0,0,1-3.5,3.87,6.34,6.34,0,0,1-4.38.46,7.45,7.45,0,0,1-3.86-2.59l-.06,0q.16,1.71-1.93,4.9Zm13-22.12-7.32,3.37,1.39,3a4.6,4.6,0,0,0,2.49,2.51,4.1,4.1,0,0,0,3.3-.16q3.45-1.59,1.56-5.67Z"/><path class="cls-2" d="M811.19,290.91l-1.52-3.83,5-4.43-3.56-9-6.65.31L803,270.12l25.87-.42,1.53,3.88Zm6-10.37,7.64-6.65a9.55,9.55,0,0,1,1.56-1l0-.1a8.89,8.89,0,0,1-1.82.3l-10.14.4Z"/><path class="cls-2" d="M818.7,313.72l-1.3-4,13.39-16.53a10.53,10.53,0,0,1,1.33-1.42l0-.09a30.09,30.09,0,0,1-3.32,1.23l-15.23,4.95-1.12-3.46,23-7.49,1.37,4.22-13.16,16.1c-.63.76-1.07,1.28-1.32,1.55l0,.07a26.34,26.34,0,0,1,3.25-1.24l15-4.87,1.13,3.47Z"/><path class="cls-2" d="M820.46,319.91l23.45-6,1.82,7.11q3.18,12.42-8.25,15.34a11.75,11.75,0,0,1-9.67-1.3,13.25,13.25,0,0,1-5.57-8.23Zm21.26-1.56-17.21,4.4.82,3.19a9.12,9.12,0,0,0,4,5.92,8.94,8.94,0,0,0,7.1.71q4.11-1.05,5.67-3.85c1-1.87,1.2-4.23.47-7.09Z"/><path class="cls-2" d="M837.79,340.47a13.22,13.22,0,0,1,9.7,1.44,11.11,11.11,0,0,1,5.08,7.86,10.51,10.51,0,0,1-1.86,8.7,12.65,12.65,0,0,1-8.08,4.67,13.36,13.36,0,0,1-9.66-1.39,12,12,0,0,1-3.24-16.53A12.4,12.4,0,0,1,837.79,340.47Zm1,3.82a10.25,10.25,0,0,0-6.09,3.23,6.69,6.69,0,0,0-1.52,5.92,7,7,0,0,0,3.48,5.13,10.12,10.12,0,0,0,6.9.77,10.7,10.7,0,0,0,6.31-3.19,6.68,6.68,0,0,0,1.42-5.95,6.9,6.9,0,0,0-3.59-5.06A10.18,10.18,0,0,0,838.77,344.29Z"/><path class="cls-2" d="M833.72,392l15.53-1.77c1.35-.15,3-.26,4.85-.33v-.09a22.14,22.14,0,0,1-2.71-.43l-18.56-5.3-.27-2.44,16.75-9.34a17.94,17.94,0,0,1,2.68-1v-.1c-1.44.27-3.18.52-5.23.75l-15.1,1.72-.4-3.46,24-2.74.59,5.21L840.74,381a19.23,19.23,0,0,1-3,1.36l0,.1c.67.13,1.76.37,3.26.74L857.62,388l.57,5-24.05,2.73Z"/><path class="cls-2" d="M836.81,437.82l-2.76-.64-.09-7.55c-.05-3.95.86-6.76,2.71-8.45a29,29,0,0,1-3.54-2.35l1.63-2.1a22.09,22.09,0,0,0,10.07,4.62l0-2.31,2.73,0a28.93,28.93,0,0,0,5,1.84l0-2.91,2.75,0,.07,5.59-2.75,0a52.78,52.78,0,0,1-5.11-1.69l0,2.05-2.66,0a20.42,20.42,0,0,1-5.7-1.51,7.9,7.9,0,0,0-2.46,6ZM851.6,416a13.66,13.66,0,0,1-6.88,2.27,6.22,6.22,0,0,1-3.47-.78c-.84-.55-1.24-1.65-1.21-3.3l2.92-.77a4.76,4.76,0,0,0-.07.84,1.42,1.42,0,0,0,.39,1.09,2.37,2.37,0,0,0,1.45.3,11,11,0,0,0,6.54-2.39A34.46,34.46,0,0,0,858.1,415l0-2.19-24.6.29,0-2.66,27.39-.32.09,7.53-2.72,0A35,35,0,0,1,851.6,416ZM840,436.41a2,2,0,0,1-1.41-.5,2,2,0,0,1-.67-1.18,19.78,19.78,0,0,1-.14-2.52l2.48-.79a8.55,8.55,0,0,0,0,.87,2.35,2.35,0,0,0,.21,1.22.77.77,0,0,0,.65.26h.47a27.08,27.08,0,0,1-1.1-3.88L842,429a13.89,13.89,0,0,1-4.6-2l1.59-2.13a11.21,11.21,0,0,0,6.63,1.88l4.36-.05.11,9.53Zm4-2.68,3.78,0,0-4.31h-.9a23.35,23.35,0,0,1-.72,3.65l-2-.51a19.82,19.82,0,0,0,.61-3.15,17.65,17.65,0,0,1-2-.23A28.51,28.51,0,0,0,844,433.73Zm13.84,3.56-.08-7.2a10.06,10.06,0,0,1-1.23-.72l.08,6.9-2,0,0-3.29-1.28,0,0,4.22-2,0-.13-10.95,1.38,0a11.58,11.58,0,0,1-1-1L854,424a18.48,18.48,0,0,0,3.69,3.07l0-2.26,2.36,0,0,3.59a6.26,6.26,0,0,0,1.74.59l-.42,2.66a10.58,10.58,0,0,1-1.29-.41l.07,6.08Zm-4.53-7,1.28,0,0-2.27c-.59-.47-1-.84-1.29-1.1Zm3.89-6.6-1.31-2.42a18.84,18.84,0,0,0,4.28-2.93l1.54,2.25A16.76,16.76,0,0,1,857.19,423.7Z"/><path class="cls-2" d="M837,470.33q-5.51-1.24-5.33-3.87c.09-1.23,1.29-2.56,3.63-4a33.76,33.76,0,0,1-2.86-6.52l2.5-1.4a26.46,26.46,0,0,0,2.85,6.74,22.83,22.83,0,0,1,4.92-1.17l.31-4.57-.76-.08a33.09,33.09,0,0,1-3.35,3.81l-2.11-1.88a18.57,18.57,0,0,0,2.5-2.46,14.63,14.63,0,0,1-6.64-4.07l1.71-2.2q3,3.61,8.84,4.14l.18-2.71,2.62.18-.65,9.54q5.55-.3,15.13.14l-.18,2.65a134.12,134.12,0,0,0-15.13-.14l-.13,1.88a2.5,2.5,0,0,0,1-.44l.4,3c-.38.2-.93.46-1.65.76l-.19,2.78-2.61-.18.5-7.44a12.83,12.83,0,0,0-3.1.69,15,15,0,0,0,2.53,2.41l-1.4,2.35a19.69,19.69,0,0,1-3.69-3.66c-1.39.87-2.09,1.46-2.11,1.77,0,.58,1.26,1.07,3.91,1.47Zm10.58-18.76-1.44-1.76a21,21,0,0,0,2.51-1.05l-15.5-1.06.19-2.68,14.09,1a25.27,25.27,0,0,1-5.95-2.71l3.43-1a35.57,35.57,0,0,0,8.39,3.61l.18-2.72,2.68.19-.22,3.22,5.44.37-.18,2.69-5.44-.38-.14,2.11-2.69-.18.15-2.11-.5,0A27,27,0,0,1,847.56,451.57ZM846,470.62l-.5-2,1.81-.19q-.2-2.82-.3-5l2.28-.58a21,21,0,0,0,3,2.84c-.07-.82-.12-1.62-.15-2.42l2.32-.25a23.1,23.1,0,0,0,5.46,3.32l-1,2.31a25.74,25.74,0,0,1-4.52-3,11.78,11.78,0,0,0,.11,1.67c.84.57,1.54,1,2.1,1.36l-1,2.2a35.44,35.44,0,0,1-6.33-5c0,.44,0,1.14.09,2.09a6.09,6.09,0,0,0,1.19-.31l.49,2A23.45,23.45,0,0,1,846,470.62Zm.62-11.38-.37-2A9.42,9.42,0,0,0,848,457c-.19-1.78-.3-3.41-.34-4.9l2.3-.51a29.31,29.31,0,0,0,3.24,2.85c0-1,0-1.75,0-2.33l2.08-.38a17,17,0,0,0,5.51,3l-1,2.39a24.57,24.57,0,0,1-4.3-2.59,6.08,6.08,0,0,0,0,1.53c.33.24,1,.64,2,1.21l-1.3,2.09a33.12,33.12,0,0,1-6.36-5,18.38,18.38,0,0,0,.11,2.27,5.33,5.33,0,0,0,1.37-.33l.54,2A28.15,28.15,0,0,1,846.66,459.24Z"/><path class="cls-2" d="M825.25,518.57l.85-4.3,7.24-2.57a9.25,9.25,0,0,0,3-1.55,3.55,3.55,0,0,0,1.12-2l.39-2-9.74-1.95.73-3.68,23.74,4.74-1.51,7.55a8.92,8.92,0,0,1-2.8,5.38,5.91,5.91,0,0,1-5.12,1.08,6.38,6.38,0,0,1-3.81-2.22,7.46,7.46,0,0,1-1.6-4.36h-.06q-.87,1.49-4.45,2.82Zm23.56-10.21-7.91-1.58-.65,3.27a4.59,4.59,0,0,0,.53,3.49,4.13,4.13,0,0,0,2.76,1.82c2.48.49,4-.73,4.6-3.67Z"/><path class="cls-2" d="M819.54,540.85l1-4,6.66-.62,2.42-9.38-5.56-3.66,1-4,21.16,14.87-1,4Zm11-4.86,10.09-.88a9.65,9.65,0,0,1,1.86.09l0-.1a9.19,9.19,0,0,1-1.64-.83l-8.44-5.64Z"/><path class="cls-2" d="M812.2,563.71l1.29-4,20.55-5.5a10.32,10.32,0,0,1,1.91-.37l0-.09a28.16,28.16,0,0,1-3.4-.95l-15.24-5,1.13-3.46,23,7.47-1.37,4.22L820,561.38c-1,.25-1.61.41-2,.48l0,.07a25.46,25.46,0,0,1,3.36.91l15,4.87-1.13,3.48Z"/><path class="cls-2" d="M810,569.74l22.49,8.94-2.71,6.83q-4.74,11.91-15.7,7.55a11.73,11.73,0,0,1-7.05-6.73,13.27,13.27,0,0,1,.32-9.94ZM828.11,581l-16.51-6.56-1.22,3.06a9.23,9.23,0,0,0-.25,7.14,9,9,0,0,0,5.33,4.75q3.94,1.56,6.85.22t4.55-5.46Z"/><path class="cls-2" d="M811.91,596.58a13.21,13.21,0,0,1,7,6.87,11.08,11.08,0,0,1-.51,9.34,10.5,10.5,0,0,1-6.62,6,12.68,12.68,0,0,1-9.28-1,13.36,13.36,0,0,1-7-6.81,11.95,11.95,0,0,1,7.1-15.27A12.39,12.39,0,0,1,811.91,596.58Zm-1.45,3.67a10.25,10.25,0,0,0-6.82-1,6.65,6.65,0,0,0-4.71,3.89,7,7,0,0,0-.21,6.19,10.11,10.11,0,0,0,5.14,4.69,10.77,10.77,0,0,0,7,1.13,6.72,6.72,0,0,0,4.65-4,6.93,6.93,0,0,0,.07-6.21A10.17,10.17,0,0,0,810.46,600.25Z"/><path class="cls-2" d="M778.33,635.86l13.6,7.7c1.18.67,2.56,1.53,4.12,2.59l0-.09a19.07,19.07,0,0,1-1.93-1.94l-11.9-15.2,1.21-2.13,19,2.3a18,18,0,0,1,2.78.73l.05-.08q-2-.94-4.67-2.47l-13.23-7.49,1.72-3,21.06,11.93-2.58,4.56-17.14-2.18a18.68,18.68,0,0,1-3.2-.65l-.06.09c.48.5,1.21,1.33,2.21,2.51L800,646.65,797.56,651,776.5,639.09Z"/><path class="cls-2" d="M753.89,674.73,752,672.59l4.37-6.16q3.42-4.83,7.16-5.24a27.78,27.78,0,0,1-1.48-4l2.55-.74a22.29,22.29,0,0,0,5.43,9.66l1.34-1.89,2.23,1.58a30.33,30.33,0,0,0,3,4.44l1.68-2.37,2.25,1.59-3.24,4.57-2.24-1.59q-1.87-2.38-3.15-4.38l-1.18,1.67-2.17-1.53a20.58,20.58,0,0,1-3.72-4.58,7.89,7.89,0,0,0-5.51,3.39Zm3.41.73a2,2,0,0,1-.86-1.23,2,2,0,0,1,.16-1.35,19.19,19.19,0,0,1,1.37-2.12l2.47.82c-.2.23-.37.46-.54.69a2.34,2.34,0,0,0-.53,1.11.74.74,0,0,0,.36.59l.39.27a27.82,27.82,0,0,1,1.39-3.78l1.71.18a14.16,14.16,0,0,1-2.57-4.29l2.54-.79a11.26,11.26,0,0,0,4.26,5.42L771,673.5l-5.52,7.77Zm4.8.19,3.09,2.19,2.49-3.52-.74-.52a23.2,23.2,0,0,1-2.73,2.52l-1.33-1.6a19.11,19.11,0,0,0,2.33-2.19q-.59-.48-1.47-1.35A28.71,28.71,0,0,0,762.1,675.65Zm16.61-9.91a13.68,13.68,0,0,1-6.9-2.21,6.2,6.2,0,0,1-2.34-2.67c-.36-.93,0-2.06,1-3.38l2.81,1.09a4.14,4.14,0,0,0-.55.64,1.36,1.36,0,0,0-.32,1.11,2.4,2.4,0,0,0,1,1.1,11.07,11.07,0,0,0,6.69,1.91,34.24,34.24,0,0,0,4.48,5.45L785.8,667l-20.06-14.23,1.54-2.16,22.34,15.84-4.35,6.14L783.05,671A35.66,35.66,0,0,1,778.71,665.74Zm-7.5,20.93,4.16-5.88a9.24,9.24,0,0,1-.56-1.3l-4,5.63L769.22,684l1.9-2.68-1-.74L767.63,684,766,682.83l6.33-8.94,1.13.8a10.91,10.91,0,0,1-.23-1.41l2.77.36a18,18,0,0,0,1.19,4.65l1.3-1.83,1.92,1.36-2.08,2.93a6.15,6.15,0,0,0,1.07,1.5l-1.91,1.91a10.8,10.8,0,0,1-.8-1.09l-3.52,5Zm.44-8.33,1.05.74,1.31-1.85c-.2-.73-.33-1.28-.4-1.65Zm7-3,.36-2.73a18.87,18.87,0,0,0,5.18.14l-.07,2.73A16.72,16.72,0,0,1,778.68,675.3Z"/><path class="cls-2" d="M734.89,701.14q-3.72-4.23-2-6.26,1.18-1.43,5.27-1.09a34,34,0,0,1,1.53-7l2.85.35a26.21,26.21,0,0,0-1.67,7.12,22.07,22.07,0,0,1,4.67,2l2.94-3.51-.57-.52a32.8,32.8,0,0,1-5,1.12l-.6-2.76a18.54,18.54,0,0,0,3.47-.52,14.76,14.76,0,0,1-3-7.2l2.68-.77q.32,4.7,4.71,8.54l1.75-2.08,2,1.68-6.14,7.33q4.67,3,12.16,9l-1.7,2a138,138,0,0,0-12.16-9l-1.22,1.45a2.51,2.51,0,0,0,1.09.24L744.56,704a16.83,16.83,0,0,1-1.78-.35L741,705.74l-2-1.69,4.78-5.71a12.82,12.82,0,0,0-2.91-1.28,15.55,15.55,0,0,0,.63,3.44L739,701.58a19.72,19.72,0,0,1-.84-5.13c-1.63-.11-2.55-.05-2.75.19-.37.45.39,1.61,2.3,3.49Zm7.16,5.57.77-1.91,1.58.91c1-1.6,1.9-3,2.71-4.25l2.19.88a21,21,0,0,0,.79,4.08c.43-.7.87-1.38,1.31-2l2,1.16a23.15,23.15,0,0,0,2.46,5.89l-2.19,1.26a25.29,25.29,0,0,1-1.9-5.05,10.86,10.86,0,0,0-.9,1.41q.51,1.44.9,2.34l-2.13,1.17a35,35,0,0,1-2.17-7.77c-.28.36-.66.94-1.16,1.75a5.94,5.94,0,0,0,1.14.44l-.77,1.9A23.61,23.61,0,0,1,742.05,706.71Zm12.44-14.52-.14-2.27a21.41,21.41,0,0,0,2.65.63l-11.91-10,1.73-2.06,10.83,9.07a25.53,25.53,0,0,1-3.22-5.7l3.37,1.2a35.64,35.64,0,0,0,4.66,7.85l1.75-2.08,2.06,1.72-2.08,2.48,4.18,3.5-1.72,2.06-4.18-3.5-1.36,1.62L759.05,695l1.36-1.61-.39-.32A27.12,27.12,0,0,1,754.49,692.19Zm-5.24,5.68.89-1.88a9.41,9.41,0,0,0,1.5.87c.9-1.55,1.77-2.93,2.6-4.16l2.17.94a29.88,29.88,0,0,0,.94,4.21c.56-.8,1-1.42,1.4-1.87l1.9.92a17.07,17.07,0,0,0,2.69,5.68L761.17,704a25.59,25.59,0,0,1-2-4.63,5.82,5.82,0,0,0-.88,1.25c.13.38.44,1.1.93,2.17l-2.28.92a32.94,32.94,0,0,1-2.19-7.8,17.7,17.7,0,0,0-1.24,1.89,4.66,4.66,0,0,0,1.3.54l-.72,1.91A29.26,29.26,0,0,1,749.25,697.87Z"/><path class="cls-2" d="M697,733.21l3.24-3,7.36,2.18a9.25,9.25,0,0,0,3.33.52A3.52,3.52,0,0,0,713,732l1.49-1.38-6.72-7.31,2.76-2.54,16.38,17.81-5.67,5.22a8.91,8.91,0,0,1-5.43,2.69,5.88,5.88,0,0,1-4.76-2.15,6.33,6.33,0,0,1-1.78-4,7.45,7.45,0,0,1,1.28-4.47l0,0c-1,.45-2.81.34-5.26-.35Zm25.06,5.63-5.46-5.93-2.45,2.25a4.58,4.58,0,0,0-1.63,3.14,4.05,4.05,0,0,0,1.16,3.09q2.56,2.79,5.88-.25Z"/><path class="cls-2" d="M679.29,747.82l3.19-2.62,5.75,3.42,7.48-6.15-2.34-6.23,3.19-2.62,8.32,24.49-3.22,2.65ZM691,750.36l8.67,5.23a11.34,11.34,0,0,1,1.45,1.17l.08-.06a9.86,9.86,0,0,1-.84-1.64l-3.48-9.53Z"/><path class="cls-2" d="M659.86,762l3.39-2.46,19.84,7.67a10.12,10.12,0,0,1,1.76.83l.08-.06a26.73,26.73,0,0,1-2.19-2.78l-9.39-13,2.95-2.13,14.19,19.6-3.59,2.6-19.37-7.59c-.91-.36-1.54-.62-1.87-.78l-.07.05a24.25,24.25,0,0,1,2.18,2.71L677,779.45l-3,2.14Z"/><path class="cls-2" d="M654.53,765.56,667.44,786,661.23,790q-10.83,6.82-17.13-3.14a11.75,11.75,0,0,1-1.74-9.6,13.23,13.23,0,0,1,6.12-7.83Zm8,19.75-9.47-15L650.29,772a9.15,9.15,0,0,0-4.41,5.62,9,9,0,0,0,1.51,7q2.26,3.58,5.41,4.21c2.1.42,4.39-.16,6.89-1.73Z"/><path class="cls-2" d="M640.28,788.37a13.22,13.22,0,0,1,1.63,9.68A11.13,11.13,0,0,1,636,805.3a10.45,10.45,0,0,1-8.85.91,12.65,12.65,0,0,1-6.94-6.25,13.34,13.34,0,0,1-1.65-9.62,12,12,0,0,1,14.72-8.17A12.35,12.35,0,0,1,640.28,788.37ZM637,790.49a10.29,10.29,0,0,0-5-4.8,6.65,6.65,0,0,0-6.09.38A6.93,6.93,0,0,0,622.1,791a10.07,10.07,0,0,0,1.4,6.81,10.64,10.64,0,0,0,5,5,6.67,6.67,0,0,0,6.1-.48,6.9,6.9,0,0,0,3.71-5A10.22,10.22,0,0,0,637,790.49Z"/><path class="cls-2" d="M590,800.4l6.47,14.22c.57,1.25,1.17,2.75,1.82,4.52l.08,0a19.72,19.72,0,0,1-.42-2.71l-.7-19.29,2.23-1,14.06,13a17.88,17.88,0,0,1,1.82,2.23l.09,0q-1.05-1.92-2.33-4.74l-6.3-13.84L610,791.3l10,22-4.76,2.17L602.7,803.66a17.71,17.71,0,0,1-2.21-2.41l-.1,0c.09.68.2,1.79.31,3.32l.55,17.27L596.67,824l-10-22Z"/><path class="cls-2" d="M547.41,817.52l-.25-2.82,7.15-2.42q5.61-1.9,8.88,0a27.88,27.88,0,0,1,1.14-4.1l2.5.91a22.08,22.08,0,0,0-1.27,11l2.19-.74.87,2.59a30,30,0,0,0-.18,5.36l2.75-.94.89,2.61-5.3,1.79-.88-2.6c-.08-2-.07-3.82,0-5.39l-1.94.66-.85-2.52a20.46,20.46,0,0,1-.33-5.89,7.94,7.94,0,0,0-6.45-.49Zm2.33,2.59a2,2,0,0,1,0-1.49,2,2,0,0,1,.92-1,19.51,19.51,0,0,1,2.35-.91l1.52,2.11-.84.25a2.38,2.38,0,0,0-1.09.58.77.77,0,0,0,0,.7l.15.44a27.14,27.14,0,0,1,3.35-2.24l1.28,1.15a13.76,13.76,0,0,1,.44-5l2.51.84a11.19,11.19,0,0,0,.27,6.89l1.4,4.13-9,3.06Zm4.68,17.24,6.83-2.31a9,9,0,0,1,.3-1.39L555,835.86l-.63-1.85,3.11-1-.41-1.21-4,1.35-.65-1.94,10.37-3.51.44,1.3a13.74,13.74,0,0,1,.64-1.27l2,1.92a18.11,18.11,0,0,0-1.77,4.46l2.13-.73.75,2.24-3.4,1.15a6.47,6.47,0,0,0,0,1.84L561,839a11.09,11.09,0,0,1,0-1.35l-5.76,2Zm-.9-14.26,1.21,3.58,4.09-1.38-.29-.86a24.41,24.41,0,0,1-3.7.44l-.14-2.08a20,20,0,0,0,3.18-.4,17.85,17.85,0,0,1-.4-2A27.91,27.91,0,0,0,553.52,823.09Zm6.15,7.78.41,1.21,2.15-.72c.26-.71.48-1.23.65-1.58Zm7.47,1.66,1.9-2a19,19,0,0,0,4.11,3.17l-1.66,2.16A16.62,16.62,0,0,1,567.14,832.53Zm5.64-7.72a13.59,13.59,0,0,1-4.29-5.84,6.15,6.15,0,0,1-.32-3.53c.25-1,1.17-1.69,2.76-2.17l1.63,2.53a4.45,4.45,0,0,0-.82.19,1.34,1.34,0,0,0-.91.72,2.33,2.33,0,0,0,.16,1.47,11,11,0,0,0,4.3,5.47,34.21,34.21,0,0,0,.42,7.05l2.07-.7-7.89-23.3,2.52-.85,8.79,25.95-7.14,2.41-.87-2.57A36.14,36.14,0,0,1,572.78,824.81Z"/><path class="cls-2" d="M516.53,827.75q-.53-5.62,2-6.27c1.19-.29,2.82.44,4.9,2.22a34.36,34.36,0,0,1,5.32-4.74l2.1,1.95a26.44,26.44,0,0,0-5.53,4.8A21.74,21.74,0,0,1,528,830l4.44-1.12-.15-.75a31.93,31.93,0,0,1-4.66-2l1.13-2.59a18.82,18.82,0,0,0,3.12,1.62,14.65,14.65,0,0,1,1.81-7.58l2.63.95q-2.52,4-1.21,9.68l2.64-.66.64,2.55-9.28,2.33q2,5.19,4.55,14.43l-2.57.65a137.74,137.74,0,0,0-4.55-14.43l-1.84.46a2.56,2.56,0,0,0,.75.83l-2.74,1.31c-.31-.3-.72-.74-1.23-1.33l-2.7.68-.64-2.55,7.23-1.82a13.13,13.13,0,0,0-1.61-2.73,14.36,14.36,0,0,0-1.51,3.15l-2.67-.6a20,20,0,0,1,2.33-4.65c-1.25-1.05-2-1.54-2.33-1.46-.57.14-.63,1.53-.19,4.17Zm2.53,8.71,1.74-1.1.74,1.67q2.63-1.06,4.69-1.85l1.26,2a21.06,21.06,0,0,0-1.76,3.78c.76-.32,1.51-.62,2.26-.89l1,2.13a23.47,23.47,0,0,0-1.46,6.22l-2.52-.27a26.13,26.13,0,0,1,1.43-5.21,12,12,0,0,0-1.55.61c-.29,1-.51,1.78-.65,2.42l-2.41-.29a35.3,35.3,0,0,1,2.8-7.57c-.43.13-1.08.37-2,.73a6.26,6.26,0,0,0,.66,1l-1.74,1.08A22.78,22.78,0,0,1,519.06,836.46Zm11-2.93,1.83-1a8.87,8.87,0,0,0,.7,1.58q2.45-1.1,4.55-1.84l1.2,2a32.31,32.31,0,0,0-1.71,4c.92-.32,1.66-.55,2.23-.69l1,1.86a17,17,0,0,0-1.16,6.17l-2.56-.16a24.47,24.47,0,0,1,1.13-4.89,5.9,5.9,0,0,0-1.45.49c-.12.39-.29,1.16-.52,2.31l-2.39-.59a33.11,33.11,0,0,1,2.81-7.61,17.28,17.28,0,0,0-2.11.81,4.83,4.83,0,0,0,.73,1.2l-1.7,1.12A28.34,28.34,0,0,1,530.07,833.53Zm7.58-1.52,1.22-1.92a21,21,0,0,0,1.78,2.07l-3.79-15.07,2.61-.65,3.44,13.7a25.66,25.66,0,0,1,.73-6.5l2,3a35.07,35.07,0,0,0-.84,9.09l2.63-.67.66,2.61-3.14.79,1.33,5.29-2.61.65-1.32-5.28-2,.51-.66-2.61,2.05-.51-.12-.49A27.09,27.09,0,0,1,537.65,832Z"/><path class="cls-2" d="M467.05,831.42l4.36-.5,4.67,6.09a9.44,9.44,0,0,0,2.39,2.39,3.58,3.58,0,0,0,2.23.45l2-.24-1.14-9.87,3.73-.43,2.77,24.05-7.65.88a8.89,8.89,0,0,1-6-1,5.88,5.88,0,0,1-2.59-4.53,6.39,6.39,0,0,1,.93-4.31,7.45,7.45,0,0,1,3.67-2.86v-.07c-1.12-.24-2.47-1.37-4.05-3.37ZM484,850.71l-.92-8-3.31.39a4.53,4.53,0,0,0-3.16,1.57,4.09,4.09,0,0,0-.88,3.19c.29,2.51,1.92,3.6,4.9,3.25Z"/><path class="cls-2" d="M444.11,832.8l4.12-.24,2.63,6.15,9.67-.57,1.78-6.41,4.12-.24-7.69,24.69-4.16.25Zm8,9,3.93,9.33a11.52,11.52,0,0,1,.48,1.81h.11a9.07,9.07,0,0,1,.28-1.82l2.79-9.76Z"/><path class="cls-2" d="M420.08,832.8h4.19l11.51,17.89a11.15,11.15,0,0,1,.93,1.7h.09a28.57,28.57,0,0,1-.12-3.53l.05-16h3.65l-.09,24.2h-4.44l-11.17-17.55c-.53-.83-.88-1.41-1.06-1.73h-.08a23.29,23.29,0,0,1,.16,3.47L423.65,857H420Z"/><path class="cls-2" d="M413.68,832.54,412,856.69l-7.32-.5q-12.8-.87-12-12.63a11.73,11.73,0,0,1,4.25-8.78,13.27,13.27,0,0,1,9.56-2.72Zm-5.16,20.68,1.2-17.72-3.29-.23a9.21,9.21,0,0,0-6.87,1.94,9,9,0,0,0-2.9,6.53q-.29,4.23,1.89,6.59c1.45,1.58,3.65,2.46,6.59,2.66Z"/><path class="cls-2" d="M388.71,842.57a13.22,13.22,0,0,1-4.39,8.77,11.14,11.14,0,0,1-9.05,2.38,10.51,10.51,0,0,1-7.69-4.48,12.69,12.69,0,0,1-1.91-9.14,13.31,13.31,0,0,1,4.33-8.74,11.95,11.95,0,0,1,16.71,2.07A12.35,12.35,0,0,1,388.71,842.57Zm-3.93-.25a10.33,10.33,0,0,0-1.18-6.8,6.68,6.68,0,0,0-5.14-3.29,7,7,0,0,0-6,1.7,10.09,10.09,0,0,0-2.88,6.33,10.72,10.72,0,0,0,1.06,7,6.66,6.66,0,0,0,5.21,3.2,6.89,6.89,0,0,0,5.93-1.83A10.21,10.21,0,0,0,384.78,842.32Z"/><path class="cls-2" d="M341,822.69,337.89,838c-.28,1.34-.67,2.91-1.19,4.72l.09,0A19.37,19.37,0,0,1,338,840.3l10.79-16,2.4.49,3.69,18.83a18,18,0,0,1,.16,2.87l.1,0q.29-2.18.9-5.21l3.05-14.89,3.41.7-4.85,23.71-5.13-1-3.21-17a18.26,18.26,0,0,1-.37-3.25l-.11,0c-.32.6-.89,1.56-1.7,2.87l-9.72,14.28-4.93-1L337.38,822Z"/><path class="cls-2" d="M290.47,831.63l6.88,2.14a9.4,9.4,0,0,1,1.06-.94l-6.59-2.06.58-1.86,3.13,1,.38-1.22-4-1.25.61-2L303,828.71l-.41,1.31c.33-.19.75-.41,1.27-.65l.52,2.75a18.42,18.42,0,0,0-4.06,2.56l2.15.67-.7,2.26-3.43-1.07a6.42,6.42,0,0,0-1.1,1.47l-2.4-1.22a11.43,11.43,0,0,1,.78-1.1l-5.8-1.81Zm6.35-16.7a2,2,0,0,1,.9-1.19,2.13,2.13,0,0,1,1.34-.27,18.41,18.41,0,0,1,2.43.65v2.6c-.28-.11-.55-.21-.82-.29a2.3,2.3,0,0,0-1.23-.17.76.76,0,0,0-.44.53l-.14.45a27.36,27.36,0,0,1,4,.15l.36,1.69a14,14,0,0,1,3.28-3.77l1.54,2.16a11.15,11.15,0,0,0-3.83,5.73l-1.3,4.16-9.1-2.83Zm-.36-3.46,1.46-2.43,7.2,2.25q5.65,1.76,7.21,5.19a28.66,28.66,0,0,1,3.33-2.65l1.49,2.2a22.11,22.11,0,0,0-7.5,8.16l2.21.68-.82,2.61a30,30,0,0,0-3.29,4.23l2.77.86-.82,2.63-5.34-1.66.82-2.63a53.06,53.06,0,0,1,3.19-4.34l-2-.61.79-2.54a20.43,20.43,0,0,1,3.2-5,8,8,0,0,0-4.93-4.19Zm1.67,8.09L297,823.17l4.12,1.29.27-.87a24.09,24.09,0,0,1-3.25-1.81l1.11-1.77a19.07,19.07,0,0,0,2.81,1.55,18.6,18.6,0,0,1,.82-1.82A28.4,28.4,0,0,0,298.13,819.56Zm.39,9.91-.38,1.23,2.17.67c.63-.41,1.11-.71,1.45-.89Zm5.07,5.74,2.71-.5a19.57,19.57,0,0,0,1.46,5l-2.61.77A16.75,16.75,0,0,1,303.59,835.21Zm9.1-2.92a13.67,13.67,0,0,1,0-7.25,6.18,6.18,0,0,1,1.81-3c.78-.63,1.95-.68,3.51-.13l-.16,3a4.84,4.84,0,0,0-.79-.32,1.36,1.36,0,0,0-1.15,0,2.35,2.35,0,0,0-.73,1.29,11,11,0,0,0,.25,7,35.08,35.08,0,0,0-3.8,5.95l2.09.65L321,815.94l2.54.79-8.15,26.15-7.19-2.24.81-2.59A35.58,35.58,0,0,1,312.69,832.29Z"/><path class="cls-2" d="M262.39,810.12l2.06.13-.38,1.79c1.82.45,3.45.87,4.87,1.26l-.15,2.35a21.56,21.56,0,0,0-3.64,2c.8.19,1.58.39,2.35.61l-.48,2.28a23.67,23.67,0,0,0-4.84,4.17L260.3,823a26.13,26.13,0,0,1,4.22-3.37,12,12,0,0,0-1.62-.41c-.81.61-1.46,1.14-1.95,1.57l-1.77-1.66a35.83,35.83,0,0,1,6.71-4.47c-.42-.15-1.09-.33-2-.56a5.66,5.66,0,0,0-.07,1.22l-2-.15A22.64,22.64,0,0,1,262.39,810.12Zm3.08-8.53c1.92-3.24,3.69-4.53,5.33-3.88q1.71.69,2.66,4.68a33.46,33.46,0,0,1,7.09-.7l.55,2.81a26.18,26.18,0,0,0-7.29.63,22.28,22.28,0,0,1-.4,5l4.24,1.71.32-.7a32.81,32.81,0,0,1-2.59-4.36l2.44-1.42a18.06,18.06,0,0,0,1.57,3.14,14.62,14.62,0,0,1,5.92-5.07l1.56,2.32c-2.91,1.16-5.14,3.53-6.66,7.12l2.52,1-1,2.44-8.87-3.57q-1.44,5.37-4.81,14.35l-2.47-1a136.38,136.38,0,0,0,4.81-14.35l-1.75-.71a2.35,2.35,0,0,0,.11,1.11l-3-.54c-.08-.43-.15-1-.22-1.81l-2.58-1,1-2.44,6.91,2.78a12.93,12.93,0,0,0,.31-3.16,14.64,14.64,0,0,0-3.07,1.66l-1.8-2a19.37,19.37,0,0,1,4.61-2.39c-.4-1.59-.74-2.44-1-2.55q-.81-.33-2.61,3.26ZM273,814.22l2.06.27a10.62,10.62,0,0,0-.36,1.69c1.75.38,3.34.78,4.76,1.19l-.22,2.36a29.42,29.42,0,0,0-3.71,2.19c.93.29,1.67.54,2.21.75l-.29,2.1a16.92,16.92,0,0,0-4.56,4.31l-2-1.64a25.29,25.29,0,0,1,3.8-3.29,5.66,5.66,0,0,0-1.47-.46c-.32.24-.91.77-1.77,1.56l-1.58-1.88a32.73,32.73,0,0,1,6.74-4.5,19,19,0,0,0-2.19-.59,5.24,5.24,0,0,0-.11,1.41l-2-.1A29.23,29.23,0,0,1,273,814.22Zm7,3.23,2.12-.84a23.54,23.54,0,0,0,.22,2.72l5.8-14.41,2.49,1L285.4,819a25.5,25.5,0,0,1,4.42-4.83l-.1,3.59a35,35,0,0,0-6,6.85l2.52,1-1,2.49-3-1.21-2,5.06-2.5-1,2-5.06-2-.78,1-2.5,2,.79.19-.47A27.25,27.25,0,0,1,280,817.45Z"/><path class="cls-2" d="M223.28,775.46l3.83,2.15.18,7.68a9.24,9.24,0,0,0,.54,3.33,3.53,3.53,0,0,0,1.54,1.68l1.77,1,4.88-8.66,3.27,1.84-11.9,21.08-6.71-3.78a8.87,8.87,0,0,1-4.23-4.34,5.85,5.85,0,0,1,.57-5.19,6.34,6.34,0,0,1,3.29-2.94,7.5,7.5,0,0,1,4.64-.16l0,0q-1.14-1.29-1.29-5.11ZM225.65,801l4-7-2.9-1.63a4.53,4.53,0,0,0-3.48-.58,4.06,4.06,0,0,0-2.59,2.05q-1.86,3.31,2.05,5.52Z"/><path class="cls-2" d="M203.94,763.09l3.47,2.23-1.49,6.52,8.16,5.23,5.21-4.14,3.47,2.23L202,790.61l-3.51-2.25ZM205.12,775l-2.31,9.86a10.52,10.52,0,0,1-.67,1.74l.1.06a9.45,9.45,0,0,1,1.29-1.31l8-6.25Z"/><path class="cls-2" d="M184.5,749l3.38,2.48-1.21,21.23a9.89,9.89,0,0,1-.25,1.93l.08.06a28.45,28.45,0,0,1,2-2.94l9.47-12.92,2.93,2.15-14.3,19.53L183,777.86l1.28-20.76c.06-1,.12-1.66.17-2l-.07-.05a24.4,24.4,0,0,1-1.91,2.9l-9.31,12.72-3-2.16Z"/><path class="cls-2" d="M179.45,745l-15.53,18.57-5.63-4.71q-9.82-8.22-2.26-17.27a11.68,11.68,0,0,1,8.59-4.59,13.26,13.26,0,0,1,9.34,3.41Zm-16.34,13.7L174.51,745,172,742.92a9.21,9.21,0,0,0-6.7-2.47A8.94,8.94,0,0,0,159.1,744c-1.81,2.16-2.6,4.31-2.35,6.44s1.5,4.13,3.76,6Z"/><path class="cls-2" d="M153.39,738.42a13.27,13.27,0,0,1-8.72,4.51,11.12,11.12,0,0,1-8.72-3.4,10.51,10.51,0,0,1-3.58-8.14,12.67,12.67,0,0,1,3.83-8.52,13.28,13.28,0,0,1,8.65-4.52,11.95,11.95,0,0,1,12.29,11.51A12.39,12.39,0,0,1,153.39,738.42Zm-3-2.52a10.25,10.25,0,0,0,3.05-6.18,6.67,6.67,0,0,0-2.23-5.69,6.93,6.93,0,0,0-5.81-2.13,10.18,10.18,0,0,0-6.06,3.42,10.75,10.75,0,0,0-3.25,6.27,6.71,6.71,0,0,0,2.33,5.66,6.89,6.89,0,0,0,5.88,2A10.12,10.12,0,0,0,150.35,735.9Z"/><path class="cls-2" d="M126.53,694.26,115,704.78q-1.52,1.38-3.74,3.11l.06.07a19.7,19.7,0,0,1,2.45-1.23l18.15-6.57,1.65,1.81-8.11,17.38a19.86,19.86,0,0,1-1.57,2.42l.07.07c1-1.06,2.27-2.28,3.8-3.67L139,707.93l2.34,2.58L123.43,726.8l-3.53-3.87,7.41-15.6a18,18,0,0,1,1.62-2.85l-.07-.08c-.62.3-1.65.74-3.08,1.32l-16.26,5.81-3.39-3.72,17.9-16.3Z"/><path class="cls-2" d="M80.44,671.69l4.29,5.79a9.34,9.34,0,0,1,1.42-.14L82,671.8l1.57-1.17,2,2.64,1-.77-2.51-3.38,1.64-1.23,6.53,8.8-1.1.82a13.37,13.37,0,0,1,1.4.22l-1.2,2.52a18.19,18.19,0,0,0-4.79-.31l1.35,1.8L86,683.15l-2.14-2.89a6.5,6.5,0,0,0-1.76.55l-1.22-2.4a10.2,10.2,0,0,1,1.28-.43l-3.62-4.88Zm8.49,10.63,2.48,1.19a18.89,18.89,0,0,0-1.75,4.88l-2.57-.91A16.79,16.79,0,0,1,88.93,682.32Zm-.72-7.62-1,.76,1.35,1.82c.76,0,1.33.09,1.7.14ZM95.4,662a2,2,0,0,1,2.68.14A17.73,17.73,0,0,1,99.66,664l-1.54,2.1c-.16-.26-.32-.5-.49-.73a2.3,2.3,0,0,0-.89-.85.73.73,0,0,0-.67.17l-.38.27a28.64,28.64,0,0,1,3.16,2.5l-.7,1.58A13.84,13.84,0,0,1,103,668l0,2.65A11.2,11.2,0,0,0,96.52,673l-3.5,2.6-5.68-7.66ZM98,685.32a13.76,13.76,0,0,1,4.24-5.88,6.22,6.22,0,0,1,3.27-1.39c1,0,2,.6,2.91,2l-1.91,2.33a4.48,4.48,0,0,0-.44-.72,1.33,1.33,0,0,0-.95-.64,2.35,2.35,0,0,0-1.35.6,11,11,0,0,0-3.89,5.77,33.59,33.59,0,0,0-6.58,2.57l1.3,1.75L114.35,677l1.58,2.14-22,16.32-4.49-6.05,2.18-1.62A36.11,36.11,0,0,1,98,685.32Zm-.84-26.39,2.61-1.09,4.49,6q3.54,4.75,2.76,8.44a29,29,0,0,1,4.25-.17l-.09,2.65A22.22,22.22,0,0,0,100.32,677l1.37,1.86-2.19,1.63a29.17,29.17,0,0,0-5.16,1.47l1.74,2.33-2.21,1.64-3.34-4.49,2.21-1.64c1.9-.69,3.61-1.24,5.14-1.63l-1.22-1.64,2.13-1.59a20.55,20.55,0,0,1,5.51-2.12,8,8,0,0,0-1.52-6.29Zm-3.43,7.53-3,2.25,2.57,3.46.72-.54a23.28,23.28,0,0,1-1.55-3.38l1.93-.77a20.44,20.44,0,0,0,1.36,2.9c.43-.28,1-.6,1.74-1A28.25,28.25,0,0,0,93.73,666.46Z"/><path class="cls-2" d="M70.43,637.79,72,639.11l-1.35,1.21q1.81,2.17,3.19,3.9L72.34,646a20.69,20.69,0,0,0-4.14-.51c.54.62,1.06,1.25,1.55,1.87L68,649a22.74,22.74,0,0,0-6.36.52L61.13,647a26,26,0,0,1,5.39-.24,10.77,10.77,0,0,0-1.06-1.29c-1,0-1.85.06-2.5.12l-.46-2.38a34.8,34.8,0,0,1,8.06.34c-.25-.37-.69-.92-1.3-1.64a6,6,0,0,0-.77.94l-1.57-1.32A23.23,23.23,0,0,1,70.43,637.79Zm7.5-5.08q5.19-2.24,6.59,0,1,1.57-.6,5.35a34.13,34.13,0,0,1,6.15,3.61l-1.22,2.6a26.06,26.06,0,0,0-6.25-3.79,22.85,22.85,0,0,1-3.3,3.83l2.43,3.88.66-.38a33.63,33.63,0,0,1,.47-5l2.82.29a17.61,17.61,0,0,0-.58,3.46,14.68,14.68,0,0,1,7.77-.61l-.1,2.79q-4.56-1.16-9.58,1.83l1.44,2.31-2.23,1.39-5.07-8.11Q73,649.61,65,654.88l-1.4-2.25a136.86,136.86,0,0,0,12.33-8.77l-1-1.6a2.41,2.41,0,0,0-.56,1L72.27,641c.18-.39.48-.92.88-1.59l-1.47-2.36,2.22-1.39,4,6.32A13.43,13.43,0,0,0,80,639.64a14.19,14.19,0,0,0-3.47-.47l-.24-2.72a19.59,19.59,0,0,1,5.13.78c.62-1.51.84-2.4.67-2.67-.3-.49-1.65-.12-4,1.1ZM76.6,647.36l1.51,1.44A9,9,0,0,0,76.82,650c1.19,1.34,2.24,2.59,3.15,3.77l-1.57,1.77a29.4,29.4,0,0,0-4.29-.41c.58.78,1,1.41,1.34,1.91L74,658.51a16.92,16.92,0,0,0-6.23.8l-.64-2.5a24.84,24.84,0,0,1,5-.42,5.61,5.61,0,0,0-.92-1.23c-.4,0-1.18.08-2.35.22l-.17-2.46a33.15,33.15,0,0,1,8.1.34,18.65,18.65,0,0,0-1.42-1.77,4.91,4.91,0,0,0-.92,1.07l-1.59-1.27A29.29,29.29,0,0,1,76.6,647.36Zm3.78,6.75,2.2.57A21.46,21.46,0,0,0,81.16,657l13.17-8.24,1.42,2.28-12,7.49a25.65,25.65,0,0,1,6.41-1.3L88,660.08a34.88,34.88,0,0,0-8.9,2l1.44,2.3-2.28,1.43-1.71-2.74L71.92,666l-1.42-2.28,4.62-2.89L74,659l2.28-1.43,1.12,1.79.42-.26A26.65,26.65,0,0,1,80.38,654.11Z"/><path class="cls-2" d="M59.16,586.76l1.83,4-4.36,6.32a9.59,9.59,0,0,0-1.53,3,3.6,3.6,0,0,0,.26,2.26l.85,1.85,9-4.13,1.57,3.41-22,10.07-3.21-7a8.93,8.93,0,0,1-.88-6,5.88,5.88,0,0,1,3.52-3.86,6.34,6.34,0,0,1,4.38-.45,7.45,7.45,0,0,1,3.85,2.6l.06,0q-.17-1.71,1.95-4.9ZM46.05,608.84l7.33-3.36-1.38-3a4.6,4.6,0,0,0-2.48-2.52,4.1,4.1,0,0,0-3.3.14q-3.45,1.59-1.58,5.68Z"/><path class="cls-2" d="M50.75,565.38l1.51,3.84-5,4.4,3.53,9,6.65-.28,1.51,3.84L33,586.53l-1.52-3.89Zm-6,10.35-7.66,6.63a10.58,10.58,0,0,1-1.57,1l0,.1a9.65,9.65,0,0,1,1.82-.29l10.14-.36Z"/><path class="cls-2" d="M43.31,542.52l1.29,4L31.15,563a9.81,9.81,0,0,1-1.33,1.41l0,.09a29.19,29.19,0,0,1,3.32-1.21l15.24-4.91,1.12,3.47-23,7.41L25.13,565,38.35,549c.63-.76,1.07-1.27,1.32-1.54l0-.07a25.39,25.39,0,0,1-3.25,1.22l-15,4.83-1.12-3.48Z"/><path class="cls-2" d="M41.57,536.34,18.1,542.25l-1.79-7.12q-3.13-12.42,8.3-15.31a11.72,11.72,0,0,1,9.66,1.33,13.26,13.26,0,0,1,5.55,8.25Zm-21.26,1.49,17.22-4.34-.8-3.2a9.2,9.2,0,0,0-4-5.94,9,9,0,0,0-7.11-.73q-4.11,1-5.68,3.83c-1,1.87-1.22,4.23-.49,7.09Z"/><path class="cls-2" d="M24.32,515.73a13.32,13.32,0,0,1-9.7-1.47,11.12,11.12,0,0,1-5.06-7.88,10.49,10.49,0,0,1,1.89-8.69,12.69,12.69,0,0,1,8.1-4.64,13.36,13.36,0,0,1,9.66,1.42A12,12,0,0,1,32.39,511,12.37,12.37,0,0,1,24.32,515.73Zm-1-3.82a10.37,10.37,0,0,0,6.11-3.21A6.69,6.69,0,0,0,31,502.79a7,7,0,0,0-3.45-5.15,10.19,10.19,0,0,0-6.91-.79A10.77,10.77,0,0,0,14.31,500,6.7,6.7,0,0,0,12.87,506,6.91,6.91,0,0,0,16.44,511,10.27,10.27,0,0,0,23.34,511.91Z"/><path class="cls-2" d="M28.55,464.22,13,465.93c-1.35.15-3,.25-4.85.31v.1a19.2,19.2,0,0,1,2.7.44l18.55,5.36.27,2.43-16.79,9.29a19.72,19.72,0,0,1-2.68,1V485c1.43-.26,3.18-.51,5.23-.73l15.11-1.67.38,3.46L6.9,488.71l-.57-5.21,15.17-8.26a19,19,0,0,1,3-1.35v-.11c-.68-.12-1.76-.37-3.26-.74L4.64,468.17l-.55-5,24.05-2.65Z"/><path class="cls-2" d="M4.59,418.84l.06,7.2a10.06,10.06,0,0,1,1.23.72l-.06-6.9,1.95,0,0,3.28H9.08l0-4.22,2,0,.1,11H9.81c.28.25.62.58,1,1l-2.46,1.34a18.23,18.23,0,0,0-3.68-3.08l0,2.25-2.36,0,0-3.59a6.23,6.23,0,0,0-1.74-.6L1,424.52a12,12,0,0,1,1.28.41l0-6.08Zm.6,13.58,1.3,2.43a18.84,18.84,0,0,0-4.28,2.91L.67,435.51A16.81,16.81,0,0,1,5.19,432.42Zm5.57,7.77a13.72,13.72,0,0,1,6.89-2.25,6.29,6.29,0,0,1,3.46.8c.83.55,1.23,1.65,1.2,3.31l-2.92.75a4.76,4.76,0,0,0,.07-.84,1.32,1.32,0,0,0-.39-1.08,2.34,2.34,0,0,0-1.45-.31,11,11,0,0,0-6.54,2.37,34,34,0,0,0-6.83-1.8l0,2.18,24.59-.21,0,2.66L1.49,446l-.06-7.53,2.72,0A35.78,35.78,0,0,1,10.76,440.19Zm14.86-21.81,2.76.64.06,7.55c0,3.95-.88,6.76-2.74,8.45a26.14,26.14,0,0,1,3.53,2.36l-1.63,2.09a22.13,22.13,0,0,0-10.06-4.65l0,2.31-2.73,0a29,29,0,0,0-5-1.85l0,2.9-2.75,0L7,432.64l2.75,0c1.94.56,3.65,1.13,5.11,1.71l0-2.05,2.66,0a20.14,20.14,0,0,1,5.7,1.53,7.93,7.93,0,0,0,2.48-6ZM9.11,425.84H7.82l0,2.27c.59.47,1,.85,1.29,1.11Zm13.32-6.06a2,2,0,0,1,1.41.49,2.08,2.08,0,0,1,.67,1.19,20.36,20.36,0,0,1,.13,2.52l-2.48.78c0-.3,0-.59,0-.87a2.25,2.25,0,0,0-.21-1.22.78.78,0,0,0-.64-.26h-.47a27,27,0,0,1,1.08,3.88l-1.49.85a14.26,14.26,0,0,1,4.59,2l-1.59,2.12a11.27,11.27,0,0,0-6.63-1.89l-4.36,0-.08-9.53Zm-4,2.66-3.78,0,0,4.31h.9a22.93,22.93,0,0,1,.74-3.64l2,.51a19.57,19.57,0,0,0-.62,3.15,17.65,17.65,0,0,1,2,.23A27.46,27.46,0,0,0,18.42,422.44Z"/><path class="cls-2" d="M14.91,404.57l1.44,1.77a20.69,20.69,0,0,0-2.52,1l15.5,1.11-.2,2.68-14.09-1A25.26,25.26,0,0,1,21,412.89l-3.44,1a35.84,35.84,0,0,0-8.37-3.64L9,413l-2.68-.19.23-3.23-5.44-.39.19-2.68,5.44.39.15-2.11,2.68.2-.15,2.1.5,0A26.91,26.91,0,0,1,14.91,404.57Zm.93-7.67.37,2.05a9.38,9.38,0,0,0-1.72.17c.17,1.78.28,3.41.32,4.9l-2.31.5a30.58,30.58,0,0,0-3.22-2.86c0,1,0,1.75,0,2.33l-2.08.37a17.17,17.17,0,0,0-5.5-3l1-2.4a25.67,25.67,0,0,1,4.29,2.61,5.61,5.61,0,0,0,0-1.53c-.33-.23-1-.64-2-1.21l1.31-2.09a33.12,33.12,0,0,1,6.34,5,16.57,16.57,0,0,0-.1-2.27,5.33,5.33,0,0,0-1.37.33l-.54-2A28.34,28.34,0,0,1,15.84,396.9Zm9.72-11c3.67.83,5.44,2.13,5.31,3.88q-.14,1.84-3.63,4a34,34,0,0,1,2.83,6.54l-2.51,1.38a26.46,26.46,0,0,0-2.82-6.75A22.29,22.29,0,0,1,19.82,396l-.33,4.56.76.09a31.71,31.71,0,0,1,3.36-3.8l2.1,1.89a18.33,18.33,0,0,0-2.51,2.45,14.66,14.66,0,0,1,6.64,4.09l-1.73,2.2q-3-3.63-8.82-4.18l-.19,2.72-2.62-.19.68-9.54q-5.55.27-15.13-.19l.19-2.65a135.3,135.3,0,0,0,15.13.19l.14-1.88a2.32,2.32,0,0,0-1,.44l-.4-3c.38-.2.93-.45,1.66-.75l.19-2.78,2.62.19L20,393.31a12.64,12.64,0,0,0,3.1-.67,14.93,14.93,0,0,0-2.52-2.42L22,387.88a19.62,19.62,0,0,1,3.68,3.66c1.39-.86,2.1-1.45,2.12-1.76,0-.58-1.26-1.08-3.91-1.48Zm-9.07-.32.5,2-1.81.18c.13,1.88.22,3.56.28,5l-2.28.57a20.18,20.18,0,0,0-3-2.85c.07.82.11,1.63.14,2.42L8,393.12a23.37,23.37,0,0,0-5.45-3.33l1.05-2.31a26.52,26.52,0,0,1,4.5,3A11.89,11.89,0,0,0,8,388.8c-.84-.58-1.54-1-2.1-1.37l1-2.2a35.28,35.28,0,0,1,6.31,5c0-.45,0-1.15-.08-2.09a5.46,5.46,0,0,0-1.19.3l-.48-2A23.42,23.42,0,0,1,16.49,385.53Z"/></g></g></g></svg>